<svg width="108" height="25" viewBox="0 0 108 25" fill="none" xmlns="http://www.w3.org/2000/svg">
<g clip-path="url(#clip0_827_8770)">
<path fill-rule="evenodd" clip-rule="evenodd" d="M20.3558 18.8503C21.5972 18.677 22.7536 19.4838 22.94 20.653C23.1265 21.8244 22.2674 22.9135 21.0261 23.0891C19.7847 23.2625 18.626 22.4556 18.4419 21.2865C18.2554 20.1151 19.1121 19.0259 20.3558 18.8503ZM11.8788 22.2378C11.6923 21.0664 10.5359 20.2596 9.29221 20.4352C8.05085 20.6085 7.19418 21.6999 7.37826 22.8691C7.5647 24.0405 8.72109 24.8473 9.9648 24.6717C11.2062 24.4961 12.0628 23.407 11.8788 22.2378ZM4.96139 10.3837C4.84056 9.60904 5.4072 8.88798 6.22894 8.77017L18.4888 7.0142L18.5384 7.00753C19.0718 6.91862 19.5272 6.63633 19.8317 6.24735C20.1456 5.84947 20.299 5.33602 20.214 4.80256V4.79811C20.129 4.27354 19.8246 3.82899 19.3998 3.53337C18.9774 3.23774 18.4298 3.09326 17.8658 3.17328L17.7478 3.18884L1.74048 5.50606C0.911419 5.62609 0.137344 5.08707 0.0160402 4.30533C-0.103847 3.53181 0.461134 2.81209 1.2817 2.69339L17.4294 0.357058L17.5474 0.339276H17.5592C18.8926 0.185906 20.1812 0.543769 21.196 1.2506C22.2438 1.98189 22.999 3.0866 23.2043 4.39135L23.2232 4.50249V4.5136C23.3813 5.74278 23.0226 6.93195 22.3028 7.87885L22.3288 7.89663C23.3554 8.61235 24.1011 9.69039 24.323 10.9618L24.3536 11.0774V11.1618C24.5188 12.4155 24.1389 13.6313 23.3861 14.5871C22.612 15.574 21.4391 16.2831 20.0537 16.4787L19.9357 16.4942H19.9334L10.8715 17.7683C10.0443 17.8846 9.27427 17.346 9.15344 16.5665C9.03308 15.7905 9.60207 15.0692 10.4255 14.9534L19.6148 13.6624L19.6195 13.6602C20.1765 13.5802 20.6508 13.2935 20.9647 12.8956C21.2786 12.4955 21.4296 11.982 21.347 11.4508V11.4486C21.2621 10.924 20.9576 10.475 20.5328 10.1794C20.1104 9.88599 19.57 9.74151 19.0083 9.81931H18.9941L18.921 9.83042L6.68371 11.5842C5.85583 11.7029 5.08341 11.1645 4.96163 10.3841V10.3837H4.96139Z" fill="#7239EA"/>
</g>
<path d="M32.0264 18V5.1944H37.9719C39.4354 5.1944 40.5879 5.59687 41.3196 6.32861C41.905 6.91401 42.1977 7.62747 42.1977 8.50557V8.54215C42.1977 9.98736 41.4294 10.7923 40.5147 11.3045C41.9965 11.8716 42.9112 12.7314 42.9112 14.451V14.4876C42.9112 16.8292 41.0086 18 38.1182 18H32.0264ZM34.7705 10.3715H37.3682C38.6122 10.3715 39.3988 9.96906 39.3988 9.01779V8.9812C39.3988 8.13969 38.7402 7.66406 37.5511 7.66406H34.7705V10.3715ZM34.7705 15.5303H38.1182C39.3622 15.5303 40.1122 15.0913 40.1122 14.14V14.1034C40.1122 13.2436 39.472 12.7131 38.0268 12.7131H34.7705V15.5303ZM49.7472 18.2195C46.7104 18.2195 44.4603 15.9694 44.4603 13.1522V13.1156C44.4603 10.2983 46.7287 8.01164 49.7837 8.01164C52.8205 8.01164 55.0706 10.2618 55.0706 13.079V13.1156C55.0706 15.9328 52.8022 18.2195 49.7472 18.2195ZM49.7837 15.823C51.3753 15.823 52.3266 14.5974 52.3266 13.1522V13.1156C52.3266 11.6704 51.2838 10.4081 49.7472 10.4081C48.1556 10.4081 47.2043 11.6338 47.2043 13.079V13.1156C47.2043 14.5608 48.2471 15.823 49.7837 15.823ZM57.0841 18V8.19457H59.8647V9.58489C60.505 8.76168 61.3282 8.01164 62.7368 8.01164C64.8406 8.01164 66.0663 9.40196 66.0663 11.6521V18H63.2856V12.5302C63.2856 11.213 62.6637 10.5362 61.6026 10.5362C60.5416 10.5362 59.8647 11.213 59.8647 12.5302V18H57.0841ZM73.1285 18.2195C70.1832 18.2195 68.0063 16.1523 68.0063 13.1522V13.1156C68.0063 10.3166 70.0003 8.01164 72.8541 8.01164C76.1287 8.01164 77.6288 10.5545 77.6288 13.3351C77.6288 13.5546 77.6105 13.8107 77.5922 14.0669H70.7686C71.043 15.3291 71.9211 15.9877 73.1651 15.9877C74.0981 15.9877 74.775 15.695 75.5433 14.9815L77.1348 16.3902C76.2202 17.5244 74.903 18.2195 73.1285 18.2195ZM70.732 12.329H74.9213C74.7567 11.085 74.0249 10.2435 72.8541 10.2435C71.7016 10.2435 70.9516 11.0667 70.732 12.329ZM85.1842 18L83.2085 14.945L81.2328 18H78.3241L81.7633 13.0241L78.4521 8.19457H81.434L83.2634 11.0667L85.111 8.19457H88.0197L84.7086 12.9875L88.1661 18H85.1842ZM92.3432 18.1829C90.4955 18.1829 88.9772 17.1219 88.9772 15.1828V15.1462C88.9772 13.0058 90.6053 12.018 92.9286 12.018C93.9165 12.018 94.6299 12.1826 95.3251 12.4204V12.2558C95.3251 11.1033 94.6116 10.463 93.2213 10.463C92.1603 10.463 91.4102 10.6642 90.5138 10.9935L89.8187 8.87144C90.898 8.3958 91.959 8.08481 93.6238 8.08481C95.1421 8.08481 96.2398 8.48727 96.9349 9.18243C97.6667 9.91418 97.996 10.9935 97.996 12.3107V18H95.3068V16.939C94.6299 17.689 93.6969 18.1829 92.3432 18.1829ZM93.1847 16.2621C94.4836 16.2621 95.3617 15.5486 95.3617 14.5425V14.0486C94.886 13.829 94.264 13.6827 93.5872 13.6827C92.3981 13.6827 91.6663 14.1583 91.6663 15.0364V15.073C91.6663 15.823 92.2883 16.2621 93.1847 16.2621ZM103.828 18.1829C102.456 18.1829 100.919 17.7256 99.6204 16.7011L100.809 14.8718C101.871 15.6401 102.986 16.0426 103.901 16.0426C104.706 16.0426 105.072 15.7499 105.072 15.3108V15.2742C105.072 14.6705 104.121 14.4693 103.041 14.14C101.669 13.7376 100.114 13.0973 100.114 11.1947V11.1582C100.114 9.16414 101.724 8.04822 103.7 8.04822C104.944 8.04822 106.298 8.46898 107.359 9.18243L106.298 11.1033C105.328 10.5362 104.358 10.1886 103.645 10.1886C102.968 10.1886 102.621 10.4813 102.621 10.8655V10.902C102.621 11.4509 103.554 11.707 104.615 12.0728C105.987 12.5302 107.578 13.1888 107.578 14.9815V15.0181C107.578 17.1951 105.95 18.1829 103.828 18.1829Z" fill="white"/>
<defs>
<clipPath id="clip0_827_8770">
<rect width="24.3916" height="24.3916" fill="white" transform="translate(0 0.304199)"/>
</clipPath>
</defs>
</svg>
